<?xml version="1.0" encoding="UTF-8"?>
<svg width="204px" height="204px" viewBox="0 0 204 204" version="1.1" xmlns="http://www.w3.org/2000/svg" xmlns:xlink="http://www.w3.org/1999/xlink">
    <!-- Generator: Sketch 48.2 (47327) - http://www.bohemiancoding.com/sketch -->
    <title>preference</title>
    <desc>Created with Sketch.</desc>
    <defs>
        <path d="M36.0355556,72.1922222 C16.1333333,72.1922222 0,56.0577778 0,36.1566667 C0,16.2544444 16.1333333,0.12 36.0355556,0.12 C55.9377778,0.12 72.0722222,16.2544444 72.0722222,36.1566667 C72.0722222,56.0577778 55.9377778,72.1922222 36.0355556,72.1922222 Z" id="path-1"></path>
        <path d="M36.0355556,72.0722222 C16.1333333,72.0722222 0,55.9377778 0,36.0355556 C0,16.1333333 16.1333333,0 36.0355556,0 C55.9377778,0 72.0722222,16.1333333 72.0722222,36.0355556 C72.0722222,55.9377778 55.9377778,72.0722222 36.0355556,72.0722222 Z" id="path-3"></path>
        <path d="M24.9244444,48.9488889 C11.6566667,48.9488889 0.901111111,38.1933333 0.901111111,24.9244444 C0.901111111,11.6566667 11.6566667,0.901111111 24.9244444,0.901111111 C38.1933333,0.901111111 48.9488889,11.6566667 48.9488889,24.9244444 C48.9488889,38.1933333 38.1933333,48.9488889 24.9244444,48.9488889 Z" id="path-5"></path>
        <path d="M11.7533333,3.12888889 C23.0977778,-3.42 37.5566667,0.923333333 44.06,12.1877778 L54.1355556,29.6388889 C54.9622222,29.0566667 55.71,28.5188889 56.5822222,28.0155556 C61.7388889,25.0377778 67.7222222,24.2277778 73.4655556,25.5655556 C75.2833333,23.0355556 77.66,20.9222222 80.3566667,19.3655556 C86.0677778,16.0677778 92.8488889,15.5377778 98.9366667,17.84 C100.215556,16.5733333 101.551111,15.59 103.058889,14.72 C113.053333,8.95 125.636667,12.79 131.315556,22.6266667 L141.253333,39.84 C144.687778,45.7888889 147.454444,52.23 149.336667,58.97 L158.892222,92.3755556 C161.12,100.08 157.76,108.365556 150.778889,112.395556 L93.8244444,145.278889 C87.4777778,148.942222 79.5833333,149.375556 72.8911111,146.576667 L18.9822222,123.548889 C14.3488889,121.57 10.4022222,118.031111 7.88333333,113.667778 C1.47111111,102.563333 5.20222222,88.14 16.3077778,81.7288889 C19.9566667,79.6222222 24.0755556,78.5122222 28.2222222,78.5511111 L3.17111111,35.16 C-3.28666667,23.9755556 0.568888889,9.58666667 11.7533333,3.12888889 Z" id="path-7"></path>
        <path d="M6.39333333,2.06 C12.1844444,-1.28222222 19.3866667,1.11666667 22.6844444,6.82777778 L48.7888889,52.0433333 L51.3277778,50.5777778 L46.9311111,42.9622222 C43.6788889,37.33 45.59,30.1977778 51.2222222,26.9466667 C57.0133333,23.6033333 64.2155556,26.0022222 67.5122222,31.7133333 L71.6344444,38.8533333 L74.1733333,37.3877778 L71.2422222,32.3111111 C68.4022222,27.3922222 70.0788889,21.1366667 74.9966667,18.2966667 C80.0733333,15.3655556 86.2622222,17.2922222 89.1477778,22.29 L91.9422222,27.1288889 L94.48,25.6633333 C92.0522222,21.4588889 93.4944444,16.0788889 97.6988889,13.6511111 C102.061111,11.1322222 107.512222,13.0622222 109.938889,17.2666667 L119.877778,34.48 C122.854444,39.6355556 125.196667,45.1588889 126.858889,50.9677778 L136.414444,84.3733333 C137.141111,86.9144444 135.995556,89.6922222 133.694444,91.02 L76.74,123.903333 C73.5666667,125.734444 69.6822222,125.967778 66.3122222,124.528889 L12.4033333,101.501111 C10.0477778,100.534444 8.09666667,98.8044444 6.81444444,96.5833333 C3.65444444,91.11 5.39444444,83.8655556 10.9477778,80.66 C14.2788889,78.7366667 18.4133333,78.57 21.9077778,80.0433333 L43.1377778,89.1511111 L2.10222222,18.0766667 C-1.14888889,12.4444444 0.762222222,5.31222222 6.39333333,2.06 Z" id="path-9"></path>
        <polygon id="path-11" points="3.23111111 0.04 20.8177778 30.5 18.2788889 31.9655556 0.692222222 1.50555556"></polygon>
        <polygon id="path-13" points="2.85 0.293333333 20.4366667 30.7544444 17.8977778 32.22 0.311111111 1.75888889"></polygon>
        <polygon id="path-15" points="2.58 0.547777778 20.1666667 31.0077778 17.6277778 32.4733333 0.0422222222 2.01333333"></polygon>
    </defs>
    <g id="Page-1" stroke="none" stroke-width="1" fill="none" fill-rule="evenodd">
        <g id="preference" transform="translate(4.000000, 4.000000)">
            <g id="Group-204" transform="translate(0.000000, 120.000000)">
                <mask id="mask-2" fill="white">
                    <use xlink:href="#path-1"></use>
                </mask>
                <g id="Clip-203"></g>
                <polygon id="Fill-202" fill="#214B96" mask="url(#mask-2)" points="-5.55555556 77.7477778 77.6276222 77.7477778 77.6276222 -5.4354 -5.55555556 -5.4354"></polygon>
            </g>
            <path d="M36.0360333,192.192067 C55.9381889,192.192067 72.0720667,176.058189 72.0720667,156.156033 C72.0720667,136.253878 55.9381889,120.12 36.0360333,120.12 C16.1338778,120.12 0,136.253878 0,156.156033 C0,176.058189 16.1338778,192.192067 36.0360333,192.192067 Z" id="Stroke-205" stroke="#FFFFFF" stroke-width="8"></path>
            <g id="Group-209">
                <mask id="mask-4" fill="white">
                    <use xlink:href="#path-3"></use>
                </mask>
                <g id="Clip-208"></g>
                <polygon id="Fill-207" fill="#214B96" mask="url(#mask-4)" points="-5.55555556 77.6277778 77.6276222 77.6277778 77.6276222 -5.5554 -5.55555556 -5.5554"></polygon>
            </g>
            <path d="M36.0360333,72.0720667 C55.9381889,72.0720667 72.0720667,55.9381889 72.0720667,36.0360333 C72.0720667,16.1338778 55.9381889,0 36.0360333,0 C16.1338778,0 0,16.1338778 0,36.0360333 C0,45.6645747 3.77623953,54.4111261 9.92849834,60.8754672 C16.4929332,67.7728926 25.7624192,72.0720667 36.0360333,72.0720667 Z" id="Stroke-210" stroke="#FFFFFF" stroke-width="8"></path>
            <g id="Group-214" transform="translate(11.111111, 11.111111)">
                <mask id="mask-6" fill="white">
                    <use xlink:href="#path-5"></use>
                </mask>
                <g id="Clip-213"></g>
                <polygon id="Fill-212" fill="#FFFFFF" mask="url(#mask-6)" points="-4.65444444 54.5044444 54.5047111 54.5044444 54.5047111 -4.65471111 -4.65444444 -4.65471111"></polygon>
            </g>
            <g id="Group-217" transform="translate(40.000000, 51.000000)">
                <mask id="mask-8" fill="white">
                    <use xlink:href="#path-7"></use>
                </mask>
                <g id="Clip-216"></g>
                <polygon id="Fill-215" fill="#FFFFFF" mask="url(#mask-8)" points="-46.6033333 30.4066667 95.0155556 -51.3566667 182.641111 100.415556 41.0222222 182.178889"></polygon>
            </g>
            <g id="Group-220" transform="translate(51.000000, 62.000000)">
                <mask id="mask-10" fill="white">
                    <use xlink:href="#path-9"></use>
                </mask>
                <g id="Clip-219"></g>
                <polygon id="Fill-218" fill="#214B96" mask="url(#mask-10)" points="-41.8088889 23.4755556 79.5022222 -46.5633333 155.403333 84.9011111 34.0922222 154.941111"></polygon>
            </g>
            <g id="Group-223" transform="translate(106.000000, 132.000000)">
                <mask id="mask-12" fill="white">
                    <use xlink:href="#path-11"></use>
                </mask>
                <g id="Clip-222"></g>
                <polygon id="Fill-221" fill="#FFFFFF" mask="url(#mask-12)" points="-6.89666667 -0.527777778 5.26444444 -7.54888889 28.4066667 32.5344444 16.2455556 39.5555556"></polygon>
            </g>
            <g id="Group-226" transform="translate(127.000000, 120.000000)">
                <mask id="mask-14" fill="white">
                    <use xlink:href="#path-13"></use>
                </mask>
                <g id="Clip-225"></g>
                <polygon id="Fill-224" fill="#FFFFFF" mask="url(#mask-14)" points="-7.27777778 -0.274444444 4.88333333 -7.29555556 28.0255556 32.7877778 15.8644444 39.8088889"></polygon>
            </g>
            <g id="Group-229" transform="translate(148.000000, 108.000000)">
                <mask id="mask-16" fill="white">
                    <use xlink:href="#path-15"></use>
                </mask>
                <g id="Clip-228"></g>
                <polygon id="Fill-227" fill="#FFFFFF" mask="url(#mask-16)" points="-7.54777778 -0.0211111111 4.61333333 -7.04222222 27.7555556 33.0411111 15.5944444 40.0622222"></polygon>
            </g>
        </g>
    </g>
</svg>